<?xml version="1.0" encoding="utf-8"?>
<!-- Generator: Adobe Illustrator 21.0.2, SVG Export Plug-In . SVG Version: 6.00 Build 0)  -->
<svg version="1.1" xmlns="http://www.w3.org/2000/svg" xmlns:xlink="http://www.w3.org/1999/xlink" x="0px" y="0px"
	 viewBox="0 0 128 129.6" style="enable-background:new 0 0 128 129.6;" xml:space="preserve">
<style type="text/css">
	.st0{fill:#FFFFFF;}
</style>
<g id="Layer_1">
</g>
<g id="Layer_2">
	<path class="st0" d="M23.7,26.4L23.7,26.4c-4.5,4.5-4.5,11.8,0,16.3l61.9,61.9c4.5,4.5,11.8,4.5,16.3,0l0,0
		c4.5-4.5,4.5-11.8,0-16.3L40.1,26.4C35.6,21.9,28.2,21.9,23.7,26.4z"/>
	<path class="st0" d="M23.7,104.7L23.7,104.7c4.5,4.5,11.8,4.5,16.3,0L102,42.8c4.5-4.5,4.5-11.8,0-16.3l0,0
		c-4.5-4.5-11.8-4.5-16.3,0L23.7,88.4C19.3,92.9,19.3,100.2,23.7,104.7z"/>
</g>
</svg>
