<?xml version="1.0" encoding="utf-8"?>
<!-- Generator: Adobe Illustrator 21.0.2, SVG Export Plug-In . SVG Version: 6.00 Build 0)  -->
<svg version="1.1" id="Layer_1" xmlns="http://www.w3.org/2000/svg" xmlns:xlink="http://www.w3.org/1999/xlink" x="0px" y="0px"
	 viewBox="0 0 190 49" style="enable-background:new 0 0 190 49;" xml:space="preserve">
<style type="text/css">
	.st0{enable-background:new    ;}
	.st1{fill:#FFFFFF;}
</style>
<g class="st0">
	<path class="st1" d="M21.1,14.7h-6.7L14,18.1l3.6,5.8c2.1,3.4,3.5,6.1,3.5,9c0,5.7-3.6,9.4-9.2,9.4c-2.2,0-4.7-0.3-6.5-0.7l0.4-5.4
		h7.9l0.4-4l-4.7-7.5C7.9,22.3,7,19.8,7,17.5c0-6,4-8.9,9.5-8.9c1.6,0,3.9,0.2,5.1,0.5L21.1,14.7z"/>
	<path class="st1" d="M31.8,19.4c1.5-1.3,4.2-2.7,6.6-2.7c2.3,0,3.8,1.3,3.8,4l-1.5,16.1H43l-0.3,4.2c-1.3,0.6-3.5,1.1-5,1.1
		S34,41.9,34,39l1.4-17h-3.7l-1.5,19.7h-6.8l1.9-24.5H32L31.8,19.4z"/>
	<path class="st1" d="M55.8,39.4c-1,1.2-2.8,2.9-5.3,2.9c-4.8,0-5.2-5.6-5.2-8.2c0-4.1,1-10.9,4.4-14.3c2.3-2.2,4.7-3,8.5-3
		c1.8,0,4.3,0.4,5.6,0.9L62.2,37h2.3l-0.3,4.1c-1.2,0.7-3.4,1.2-4.9,1.2c-2.1,0-3.5-0.9-3.5-2.4V39.4z M51.7,37h3.9L56.9,22h-4
		L51.7,37z"/>
	<path class="st1" d="M80.7,22h-6.1l-1.2,14.9h6.3L79.4,41c-1,0.8-3.4,1.3-5.2,1.3c-6.9,0-7.4-6.1-7.4-9.5c0-4.7,1-9.8,3.6-13.2
		c1.6-2.1,3.7-3.1,6.4-3.1c1.5,0,3.3,0.3,4.3,0.6L80.7,22z"/>
	<path class="st1" d="M93.2,26.6l1-9.4h6.3l-0.4,3.4c-0.5,4.5-1.3,6.5-3,7.8l1.6,8.5h2.1l-0.4,4.2c-1.2,0.6-3,1.1-4.3,1.1
		c-1.6,0-3.5-0.6-3.7-3.4l-0.9-8.2l-1.9,0.7l-0.9,10.4h-6.6L85.1,5h6.5l-1.9,21.7L93.2,26.6z"/>
	<path class="st1" d="M116.2,22h-5.4l-1.4,19.7h-6.9l1.9-24.5h6.2l-0.2,2.3c1.2-2,3.5-3.5,6.4-3.5L116.2,22z"/>
	<path class="st1" d="M130.5,41c-1.4,0.6-4.1,1.3-6.5,1.3c-7.4,0-8.3-5.8-8.3-9.4c0-4.5,1.1-9.7,3.7-12.9c1.8-2.2,4.3-3.5,7-3.5
		c4.9,0,6.2,3.1,6.2,6c0,3.3-1.2,6-3.3,7.6c-1.9,1.4-4.2,1.9-6.8,1.9l-0.4,4.9h8.6L130.5,41z M122.8,28.2h4.1l0.5-6.1h-4L122.8,28.2
		z"/>
	<path class="st1" d="M146.9,22h-6.1l2.6,5c2,3.5,3.3,6,3.3,8.5c0,4.3-2.2,6.7-7.5,6.7c-1.5,0-3.9-0.1-5.7-0.5l0.5-4.8h6.9l-3.6-6.9
		c-1.2-2-2.4-4.3-2.4-6.7c0-3.3,1.8-6.6,7.7-6.6c1.3,0,3.4,0.2,4.7,0.5L146.9,22z"/>
	<path class="st1" d="M151.7,17.2l1.8-6.4h5l-0.5,6.4h4.3l-0.4,4.8h-4.1l-0.6,7.4l-0.7,7.4h3.8l-0.4,4.2c-1.5,0.6-4,1.1-5.9,1.1
		c-2.4,0-4.2-0.8-4.2-3.3l0.7-8.4l0.7-8.4h-2.3l0.4-4.8H151.7z"/>
	<path class="st1" d="M162.3,32.5c0-4,0.9-9,3-12.1c1.6-2.5,4.1-3.8,7.1-3.8c7.7,0,8.6,6.6,8.6,10.3c0,3.8-0.9,9.4-2.9,12.2
		c-1.5,1.9-3.7,3.3-7,3.3C163.1,42.4,162.3,35.8,162.3,32.5L162.3,32.5z M174.4,22h-4.3l-1.2,14.9h4.3L174.4,22z"/>
</g>
</svg>
