<?xml version="1.0" encoding="utf-8"?>
<!-- Generator: Adobe Illustrator 21.0.2, SVG Export Plug-In . SVG Version: 6.00 Build 0)  -->
<svg version="1.1" id="Layer_1" xmlns="http://www.w3.org/2000/svg" xmlns:xlink="http://www.w3.org/1999/xlink" x="0px" y="0px"
	 viewBox="0 0 297.9 85" style="enable-background:new 0 0 297.9 85;" xml:space="preserve">
<style type="text/css">
	.st0{fill:#FFC200;}
	.st1{fill:none;}
	.st2{fill:#FFFFFF;}
	.st3{font-family:'GillSans-Bold';}
	.st4{font-size:48px;}
	.st5{fill:none;stroke:#FFFFFF;stroke-width:11;stroke-miterlimit:10;}
	.st6{fill:none;stroke:#FFC200;stroke-width:4;stroke-miterlimit:10;}
</style>
<path class="st0" d="M297.9,85H86.7c-23.5,0-42.5-19-42.5-42.5l0,0C44.2,19,63.2,0,86.7,0h168.7c23.5,0,42.5,19,42.5,42.5V85z"/>
<rect x="99.5" y="24.6" class="st1" width="369.9" height="237.3"/>
<text transform="matrix(1 0 0 1 103.2741 57.0992)" class="st2 st3 st4">Patat</text>
<g>
	<path class="st2" d="M84.5,49.8c-0.2-0.5-0.4-1-0.7-1.5c-0.5-0.9-1.3-1.3-2.3-0.7c-1.3,0.7-2.6,1.4-3.9,2.1
		c-0.5,0.3-1.1,0.9-1.6,0.6c-0.5-0.4,0-1.2,0.1-1.7c0.4-1.5,1.2-3,1-4.4c-0.3-1.7,0.6-2.6,1.3-3.7c0.2-0.4,0.5-0.7,0.7-1
		c0.5-1,0.1-2.6-0.7-3.2c-1-0.8-1.7,0.1-2.4,0.6c-0.2,0.1-0.3,0.3-0.5,0.4c-2,2.4-4,4.8-5.6,7.5c-0.4,0.7-0.7,1.4-1.4,2
		c-0.2-1.1,0.2-2,0.5-2.9c0.3-0.7,0.6-1.4,0-2c-0.5-0.5-0.3-1,0.1-1.5c1.3-1.8,2.6-3.6,3.8-5.5c1.1-1.6,0.9-2.1-0.7-3.1
		c-1-0.6-1.8-0.6-2.5,0.4c-0.3,0.5-0.7,0.9-1.1,1.4c-0.4,0.5-0.7,0.6-1.3,0.2c-0.3-0.2-0.5-0.4-0.8-0.6c-1-0.6-2.2-0.4-3.2-0.3
		c-0.7,0.1-0.7,1.1-0.9,1.7c-0.7,1.9-1.3,3.9-2,5.9c-0.1,0.3-0.1,0.6-0.5,0.7c-0.3,0-0.4-0.3-0.5-0.5c-0.6-1.1-0.9-0.5-1.2,0.2
		c-0.3,0.7-0.4,1.5-1,2.1c0-0.4-0.1-0.8,0-1.1c0.2-4.2,0.4-8.4,1.1-12.6c0.9-5.1,1.8-10.2,3.2-15.2c0.3-0.9-0.7-2.7-1.6-3
		c-0.9-0.3-1.7,0.1-2.3,1.4c-1.1,2.3-1.7,4.8-2.3,7.2c-1.4,6-1.7,12.1-2.7,18.1c-0.1,0.6-0.2,1.2-0.5,1.7c-0.3,0.7-0.9,0.7-1.5,0.6
		c-0.6-0.1-0.3-0.7-0.3-1.1c0-1.5,0.1-2.9,0.2-4.4c0.4-6.8,0.8-13.6-0.2-20.4c-0.1-1-0.6-1.5-1.6-1.6c-0.6-0.1-1.2-0.1-1.8,0
		c-1.1,0.2-1.7,0.8-1.6,2c0.2,2,0.4,4,0.6,6c0.1,0.9,0.4,1.9,0,2.6c-0.5,0.8-1.6,0-2.5,0.2l-0.4,0c-0.7,0-1.1,0.4-1,1
		c0.1,1.2-0.2,1.8-1.6,1.4c-0.8-0.2-1.4,0.4-1.8,1.1c-0.4,0.7,0.1,1.2,0.5,1.6c0.7,0.7,0.4,1.6,0.3,2.4c0,0.2-0.2,0.4-0.4,0.4
		c-0.3,0-0.4-0.3-0.5-0.5c-0.4-1.2-0.7-2.3-1-3.5c-0.7-2.5-1-2.6-3.2-1.4c-0.3,0.1-0.5,0.3-0.7,0.5c-0.9,0.8-1.3,1.7-0.7,2.9
		c1.3,3,2,6.2,2.9,9.4c0.1,0.5,0.3,1.1-0.3,1.3c-0.8,0.2-0.7-0.5-0.8-1c-0.1-0.3-0.1-0.7-0.2-1c-0.2-1.4-1.3-2.3-2.7-2.3
		c-0.8,0-1.3,0.2-1.3,1.2c0,0.6-0.1,1.2-0.7,1.8c-0.1-0.7,0-1.3,0-2c0.1-3,0.1-6.1,0.1-9.1c0-1.1-0.1-2.2-0.3-3.3
		c-0.1-1.1-1-1.4-1.9-1.5C27,22.8,26.2,23,25.9,24c-0.5,1.5-0.8,3.1-1.1,4.7c-0.1,0.8-0.4,1.5-1.1,2c-1.4,1-1.8,2.3-1,3.9
		c0.2,0.3,0.4,0.8-0.2,0.9c-1.2,0.3-2,1.1-2.8,1.8c-0.4,0.3-0.6,0.7-1.1,0C17.6,36,16.1,36,14.7,36c-0.8,0-1.2,0.6-1.3,1.4
		c-0.3,1.5,0.1,2.8,0.9,4.1c1.5,2.2,2.5,4.7,3.1,7.3c0.2,0.9,0.3,1.9,0.3,3.1c0,0,0,0.1-0.1,0.1c-1.6-2.3-2.9-4.3-4.3-6.3
		c-1.2-1.7-1.3-1.7-2.6-0.3l-0.4,0.3c-1.5,1.2-1.8,3.5-0.5,4.9c0.6,0.7,1.2,1.5,1.7,2.4c0.3,0.5,3.8,2.6,5.1,3.3
		c0.5,16.5,14.5,15,31.6,15c17.4,0,31.6,1.6,31.7-15.8c1-1.5,2-2.8,3.8-3.4C84.7,51.7,84.9,50.9,84.5,49.8z"/>
	<path class="st5" d="M84.5,49.8c-0.2-0.5-0.4-1-0.7-1.5c-0.5-0.9-1.3-1.3-2.3-0.7c-1.3,0.7-2.6,1.4-3.9,2.1
		c-0.5,0.3-1.1,0.9-1.6,0.6c-0.5-0.4,0-1.2,0.1-1.7c0.4-1.5,1.2-3,1-4.4c-0.3-1.7,0.6-2.6,1.3-3.7c0.2-0.4,0.5-0.7,0.7-1
		c0.5-1,0.1-2.6-0.7-3.2c-1-0.8-1.7,0.1-2.4,0.6c-0.2,0.1-0.3,0.3-0.5,0.4c-2,2.4-4,4.8-5.6,7.5c-0.4,0.7-0.7,1.4-1.4,2
		c-0.2-1.1,0.2-2,0.5-2.9c0.3-0.7,0.6-1.4,0-2c-0.5-0.5-0.3-1,0.1-1.5c1.3-1.8,2.6-3.6,3.8-5.5c1.1-1.6,0.9-2.1-0.7-3.1
		c-1-0.6-1.8-0.6-2.5,0.4c-0.3,0.5-0.7,0.9-1.1,1.4c-0.4,0.5-0.7,0.6-1.3,0.2c-0.3-0.2-0.5-0.4-0.8-0.6c-1-0.6-2.2-0.4-3.2-0.3
		c-0.7,0.1-0.7,1.1-0.9,1.7c-0.7,1.9-1.3,3.9-2,5.9c-0.1,0.3-0.1,0.6-0.5,0.7c-0.3,0-0.4-0.3-0.5-0.5c-0.6-1.1-0.9-0.5-1.2,0.2
		c-0.3,0.7-0.4,1.5-1,2.1c0-0.4-0.1-0.8,0-1.1c0.2-4.2,0.4-8.4,1.1-12.6c0.9-5.1,1.8-10.2,3.2-15.2c0.3-0.9-0.7-2.7-1.6-3
		c-0.9-0.3-1.7,0.1-2.3,1.4c-1.1,2.3-1.7,4.8-2.3,7.2c-1.4,6-1.7,12.1-2.7,18.1c-0.1,0.6-0.2,1.2-0.5,1.7c-0.3,0.7-0.9,0.7-1.5,0.6
		c-0.6-0.1-0.3-0.7-0.3-1.1c0-1.5,0.1-2.9,0.2-4.4c0.4-6.8,0.8-13.6-0.2-20.4c-0.1-1-0.6-1.5-1.6-1.6c-0.6-0.1-1.2-0.1-1.8,0
		c-1.1,0.2-1.7,0.8-1.6,2c0.2,2,0.4,4,0.6,6c0.1,0.9,0.4,1.9,0,2.6c-0.5,0.8-1.6,0-2.5,0.2l-0.4,0c-0.7,0-1.1,0.4-1,1
		c0.1,1.2-0.2,1.8-1.6,1.4c-0.8-0.2-1.4,0.4-1.8,1.1c-0.4,0.7,0.1,1.2,0.5,1.6c0.7,0.7,0.4,1.6,0.3,2.4c0,0.2-0.2,0.4-0.4,0.4
		c-0.3,0-0.4-0.3-0.5-0.5c-0.4-1.2-0.7-2.3-1-3.5c-0.7-2.5-1-2.6-3.2-1.4c-0.3,0.1-0.5,0.3-0.7,0.5c-0.9,0.8-1.3,1.7-0.7,2.9
		c1.3,3,2,6.2,2.9,9.4c0.1,0.5,0.3,1.1-0.3,1.3c-0.8,0.2-0.7-0.5-0.8-1c-0.1-0.3-0.1-0.7-0.2-1c-0.2-1.4-1.3-2.3-2.7-2.3
		c-0.8,0-1.3,0.2-1.3,1.2c0,0.6-0.1,1.2-0.7,1.8c-0.1-0.7,0-1.3,0-2c0.1-3,0.1-6.1,0.1-9.1c0-1.1-0.1-2.2-0.3-3.3
		c-0.1-1.1-1-1.4-1.9-1.5C27,22.8,26.2,23,25.9,24c-0.5,1.5-0.8,3.1-1.1,4.7c-0.1,0.8-0.4,1.5-1.1,2c-1.4,1-1.8,2.3-1,3.9
		c0.2,0.3,0.4,0.8-0.2,0.9c-1.2,0.3-2,1.1-2.8,1.8c-0.4,0.3-0.6,0.7-1.1,0C17.6,36,16.1,36,14.7,36c-0.8,0-1.2,0.6-1.3,1.4
		c-0.3,1.5,0.1,2.8,0.9,4.1c1.5,2.2,2.5,4.7,3.1,7.3c0.2,0.9,0.3,1.9,0.3,3.1c0,0,0,0.1-0.1,0.1c-1.6-2.3-2.9-4.3-4.3-6.3
		c-1.2-1.7-1.3-1.7-2.6-0.3l-0.4,0.3c-1.5,1.2-1.8,3.5-0.5,4.9c0.6,0.7,1.2,1.5,1.7,2.4c0.3,0.5,3.8,2.6,5.1,3.3
		c0.5,16.5,14.5,15,31.6,15c17.4,0,31.6,1.6,31.7-15.8c1-1.5,2-2.8,3.8-3.4C84.7,51.7,84.9,50.9,84.5,49.8z"/>
	<path class="st6" d="M84.5,49.8c-0.2-0.5-0.4-1-0.7-1.5c-0.5-0.9-1.3-1.3-2.3-0.7c-1.3,0.7-2.6,1.4-3.9,2.1
		c-0.5,0.3-1.1,0.9-1.6,0.6c-0.5-0.4,0-1.2,0.1-1.7c0.4-1.5,1.2-3,1-4.4c-0.3-1.7,0.6-2.6,1.3-3.7c0.2-0.4,0.5-0.7,0.7-1
		c0.5-1,0.1-2.6-0.7-3.2c-1-0.8-1.7,0.1-2.4,0.6c-0.2,0.1-0.3,0.3-0.5,0.4c-2,2.4-4,4.8-5.6,7.5c-0.4,0.7-0.7,1.4-1.4,2
		c-0.2-1.1,0.2-2,0.5-2.9c0.3-0.7,0.6-1.4,0-2c-0.5-0.5-0.3-1,0.1-1.5c1.3-1.8,2.6-3.6,3.8-5.5c1.1-1.6,0.9-2.1-0.7-3.1
		c-1-0.6-1.8-0.6-2.5,0.4c-0.3,0.5-0.7,0.9-1.1,1.4c-0.4,0.5-0.7,0.6-1.3,0.2c-0.3-0.2-0.5-0.4-0.8-0.6c-1-0.6-2.2-0.4-3.2-0.3
		c-0.7,0.1-0.7,1.1-0.9,1.7c-0.7,1.9-1.3,3.9-2,5.9c-0.1,0.3-0.1,0.6-0.5,0.7c-0.3,0-0.4-0.3-0.5-0.5c-0.6-1.1-0.9-0.5-1.2,0.2
		c-0.3,0.7-0.4,1.5-1,2.1c0-0.4-0.1-0.8,0-1.1c0.2-4.2,0.4-8.4,1.1-12.6c0.9-5.1,1.8-10.2,3.2-15.2c0.3-0.9-0.7-2.7-1.6-3
		c-0.9-0.3-1.7,0.1-2.3,1.4c-1.1,2.3-1.7,4.8-2.3,7.2c-1.4,6-1.7,12.1-2.7,18.1c-0.1,0.6-0.2,1.2-0.5,1.7c-0.3,0.7-0.9,0.7-1.5,0.6
		c-0.6-0.1-0.3-0.7-0.3-1.1c0-1.5,0.1-2.9,0.2-4.4c0.4-6.8,0.8-13.6-0.2-20.4c-0.1-1-0.6-1.5-1.6-1.6c-0.6-0.1-1.2-0.1-1.8,0
		c-1.1,0.2-1.7,0.8-1.6,2c0.2,2,0.4,4,0.6,6c0.1,0.9,0.4,1.9,0,2.6c-0.5,0.8-1.6,0-2.5,0.2l-0.4,0c-0.7,0-1.1,0.4-1,1
		c0.1,1.2-0.2,1.8-1.6,1.4c-0.8-0.2-1.4,0.4-1.8,1.1c-0.4,0.7,0.1,1.2,0.5,1.6c0.7,0.7,0.4,1.6,0.3,2.4c0,0.2-0.2,0.4-0.4,0.4
		c-0.3,0-0.4-0.3-0.5-0.5c-0.4-1.2-0.7-2.3-1-3.5c-0.7-2.5-1-2.6-3.2-1.4c-0.3,0.1-0.5,0.3-0.7,0.5c-0.9,0.8-1.3,1.7-0.7,2.9
		c1.3,3,2,6.2,2.9,9.4c0.1,0.5,0.3,1.1-0.3,1.3c-0.8,0.2-0.7-0.5-0.8-1c-0.1-0.3-0.1-0.7-0.2-1c-0.2-1.4-1.3-2.3-2.7-2.3
		c-0.8,0-1.3,0.2-1.3,1.2c0,0.6-0.1,1.2-0.7,1.8c-0.1-0.7,0-1.3,0-2c0.1-3,0.1-6.1,0.1-9.1c0-1.1-0.1-2.2-0.3-3.3
		c-0.1-1.1-1-1.4-1.9-1.5C27,22.8,26.2,23,25.9,24c-0.5,1.5-0.8,3.1-1.1,4.7c-0.1,0.8-0.4,1.5-1.1,2c-1.4,1-1.8,2.3-1,3.9
		c0.2,0.3,0.4,0.8-0.2,0.9c-1.2,0.3-2,1.1-2.8,1.8c-0.4,0.3-0.6,0.7-1.1,0C17.6,36,16.1,36,14.7,36c-0.8,0-1.2,0.6-1.3,1.4
		c-0.3,1.5,0.1,2.8,0.9,4.1c1.5,2.2,2.5,4.7,3.1,7.3c0.2,0.9,0.3,1.9,0.3,3.1c0,0,0,0.1-0.1,0.1c-1.6-2.3-2.9-4.3-4.3-6.3
		c-1.2-1.7-1.3-1.7-2.6-0.3l-0.4,0.3c-1.5,1.2-1.8,3.5-0.5,4.9c0.6,0.7,1.2,1.5,1.7,2.4c0.3,0.5,3.8,2.6,5.1,3.3
		c0.5,16.5,14.5,15,31.6,15c17.4,0,31.6,1.6,31.7-15.8c1-1.5,2-2.8,3.8-3.4C84.7,51.7,84.9,50.9,84.5,49.8z"/>
</g>
</svg>
