<?xml version="1.0" encoding="utf-8"?>
<!-- Generator: Adobe Illustrator 21.0.2, SVG Export Plug-In . SVG Version: 6.00 Build 0)  -->
<svg version="1.1" id="Layer_1" xmlns="http://www.w3.org/2000/svg" xmlns:xlink="http://www.w3.org/1999/xlink" x="0px" y="0px"
	 viewBox="0 0 292.9 85" style="enable-background:new 0 0 292.9 85;" xml:space="preserve">
<style type="text/css">
	.st0{fill:#E30613;}
	.st1{fill:none;}
	.st2{fill:#FFFFFF;stroke:#E30613;stroke-miterlimit:10;}
	.st3{font-family:'GillSans-Bold';}
	.st4{font-size:48px;}
	.st5{fill:#FFFFFF;stroke:#FFFFFF;stroke-width:4;stroke-miterlimit:10;}
	.st6{fill:#FFFFFF;stroke:#E30613;stroke-width:4;stroke-miterlimit:10;}
</style>
<path class="st0" d="M292.9,85H81.7c-23.5,0-42.5-19-42.5-42.5v0C39.2,19,58.2,0,81.7,0l168.7,0c23.5,0,42.5,19,42.5,42.5V85z"/>
<rect x="94.5" y="24.6" class="st1" width="369.9" height="237.3"/>
<text transform="matrix(1 0 0 1 94.4841 57.0992)" class="st2 st3 st4">Snacks</text>
<g>
	<g>
		<g id="_x35_6_1_">
			<g>
				<path class="st5" d="M78.3,61.5H8.2c-0.5,0-0.9,0.4-0.9,0.9v5.3c0,3.1,2.5,5.6,5.6,5.6h60.7c3.1,0,5.6-2.5,5.6-5.6v-5.3
					C79.2,61.9,78.8,61.5,78.3,61.5z"/>
				<path class="st5" d="M78.5,46.8H8.1c-2.9,0-5.3,2.7-5.3,5.9c0,3.3,2.4,5.9,5.3,5.9h70.4c2.9,0,5.3-2.7,5.3-5.9
					S81.4,46.8,78.5,46.8z"/>
				<path class="st5" d="M8.2,38.2h70.2l0,0c0.5,0,0.9-0.4,0.9-0.9c0,0,0,0,0-0.1c0-9.4-3.7-17.1-10.6-22.4
					C62.3,10,53.5,7.5,43.3,7.5s-19,2.5-25.4,7.4c-7,5.3-10.6,13-10.6,22.4C7.3,37.8,7.7,38.2,8.2,38.2z"/>
				<path class="st5" d="M4.7,45.1h77.2c1.1,0,1.9-0.9,1.9-1.9c0-1.1-0.9-1.9-1.9-1.9H4.7c-1.1,0-1.9,0.9-1.9,1.9
					C2.8,44.2,3.6,45.1,4.7,45.1z"/>
			</g>
		</g>
	</g>
</g>
<g>
	<g>
		<g id="_x35_6_60_">
			<g>
				<path class="st6" d="M74.8,59.3h-63c-0.4,0-0.8,0.4-0.8,0.8v4.7c0,2.8,2.3,5,5,5h54.6c2.8,0,5-2.3,5-5v-4.7
					C75.6,59.7,75.2,59.3,74.8,59.3z"/>
				<path class="st6" d="M74.9,46.2H11.6c-2.6,0-4.7,2.4-4.7,5.3c0,3,2.1,5.3,4.7,5.3h63.3c2.6,0,4.7-2.4,4.7-5.3
					C79.7,48.6,77.5,46.2,74.9,46.2z"/>
				<path class="st6" d="M11.7,38.4h63.1l0,0c0.4,0,0.8-0.4,0.8-0.8c0,0,0,0,0-0.1c0-8.4-3.3-15.4-9.6-20.1
					c-5.7-4.3-13.6-6.6-22.8-6.6s-17.1,2.3-22.8,6.6c-6.3,4.7-9.6,11.7-9.6,20.2C10.9,38,11.3,38.4,11.7,38.4z"/>
				<path class="st6" d="M8.6,44.6H78c1,0,1.7-0.8,1.7-1.7s-0.8-1.7-1.7-1.7H8.6c-1,0-1.7,0.8-1.7,1.7C6.9,43.9,7.6,44.6,8.6,44.6z"
					/>
			</g>
		</g>
	</g>
</g>
</svg>
