<?xml version="1.0" encoding="utf-8"?>
<!-- Generator: Adobe Illustrator 21.0.2, SVG Export Plug-In . SVG Version: 6.00 Build 0)  -->
<svg version="1.1" xmlns="http://www.w3.org/2000/svg" xmlns:xlink="http://www.w3.org/1999/xlink" x="0px" y="0px"
	 viewBox="0 0 128 129.6" style="enable-background:new 0 0 128 129.6;" xml:space="preserve">
<style type="text/css">
	.st0{fill:#FFFFFF;}
</style>
<g id="Layer_2_2_">
</g>
<g id="Layer_1">
	<g id="Layer_1_2_">
		<g id="Layer_1_1_">
		</g>
		<g id="Layer_2">
			<path class="st0" d="M54.7,30.4L54.7,30.4c-4.5,4.5-4.5,11.8,0,16.3l30.9,30.9c4.5,4.5,11.8,4.5,16.3,0l0,0
				c4.5-4.5,4.5-11.8,0-16.3L71.1,30.4C66.6,25.9,59.2,25.9,54.7,30.4z"/>
			<path class="st0" d="M23.7,77.7L23.7,77.7c4.5,4.5,11.8,4.5,16.3,0l31.1-31c4.5-4.5,4.5-11.8,0-16.3l0,0
				c-4.5-4.5-11.8-4.5-16.3,0l-31.1,31C19.3,65.9,19.3,73.2,23.7,77.7z"/>
		</g>
	</g>
	<path class="st0" d="M62.9,27L62.9,27c-6.4,0-11.5,5.2-11.5,11.5l0,62.8c0,6.4,5.2,11.5,11.5,11.5l0,0c6.4,0,11.5-5.2,11.5-11.5
		l0.1-62.8C74.5,32.2,69.3,27,62.9,27z"/>
</g>
</svg>
