<?xml version="1.0" encoding="utf-8"?>
<!-- Generator: Adobe Illustrator 21.0.2, SVG Export Plug-In . SVG Version: 6.00 Build 0)  -->
<svg version="1.1" id="Layer_1" xmlns="http://www.w3.org/2000/svg" xmlns:xlink="http://www.w3.org/1999/xlink" x="0px" y="0px"
	 viewBox="0 0 288 221" style="enable-background:new 0 0 288 221;" xml:space="preserve">
<style type="text/css">
	.st0{fill:#FFFFFF;}
</style>
<g>
	<path class="st0" d="M143.3,128.2c19.2,0,38.4,0,57.6,0s38.4,0.1,57.6,0c11,0,19.5-8.9,19.2-19.9c-0.3-10.5-8.9-18.5-20-18.5
		c-67.3,0-134.5,0-201.8,0c-9.2,0-18.4,0-27.6,0c-5.9,0-11,2.2-14.7,6.8c-5.1,6.2-6.2,13.2-2.8,20.5c3.5,7.4,9.6,11.1,17.7,11.1
		C66.8,128.2,105.1,128.2,143.3,128.2z M143.4,166.6c-24.3,0-48.6,0-72.9,0c-14.2,0-28.4-0.1-42.6,0c-10.6,0.1-19,8.6-19,19.1
		c0,11,8.6,19.2,20.1,19.2c73.4,0,146.7,0,220.1,0c3.3,0,6.6,0.1,9.9,0c5.6-0.2,10.3-2.4,13.9-6.6c5.1-6.2,6.3-13.1,2.9-20.4
		c-3.4-7.4-9.5-11.2-17.6-11.3C220,166.5,181.7,166.6,143.4,166.6z M143,51.4c16.9,0,33.8,0,50.7,0c21.6,0,43.2,0,64.8,0
		c11.2,0,19.7-9.1,19.2-20.1c-0.4-10.4-9-18.2-20-18.2c-76.2,0-152.3,0-228.5,0c-0.7,0-1.4,0-2.1,0c-10,0.5-18,8.8-18.2,18.8
		c-0.2,11,8.4,19.6,19.8,19.6C66.8,51.4,104.9,51.4,143,51.4z"/>
	<path class="st0" d="M143.3,128.2c-38.3,0-76.6,0-114.8,0c-8.1,0-14.3-3.7-17.7-11.1c-3.4-7.3-2.3-14.3,2.8-20.5
		c3.8-4.6,8.8-6.8,14.7-6.8c9.2,0,18.4,0,27.6,0c67.3,0,134.5,0,201.8,0c11.1,0,19.7,7.9,20,18.5c0.3,10.9-8.2,19.8-19.2,19.9
		c-19.2,0.1-38.4,0-57.6,0S162.5,128.2,143.3,128.2z"/>
	<path class="st0" d="M143.4,166.6c38.3,0,76.6,0,114.8,0c8.1,0,14.2,3.8,17.6,11.3c3.4,7.3,2.2,14.3-2.9,20.4
		c-3.6,4.3-8.3,6.5-13.9,6.6c-3.3,0.1-6.6,0-9.9,0c-73.4,0-146.7,0-220.1,0c-11.6,0-20.2-8.3-20.1-19.2c0-10.5,8.4-19.1,19-19.1
		c14.2-0.1,28.4,0,42.6,0C94.8,166.6,119.1,166.6,143.4,166.6z"/>
	<path class="st0" d="M143,51.4c-38.1,0-76.2,0-114.2,0c-11.4,0-20-8.5-19.8-19.6c0.2-10,8.2-18.3,18.2-18.8c0.7,0,1.4,0,2.1,0
		c76.2,0,152.3,0,228.5,0c11,0,19.5,7.8,20,18.2c0.5,11.1-8.1,20.1-19.2,20.1c-21.6,0.1-43.2,0-64.8,0
		C176.8,51.4,159.9,51.4,143,51.4z"/>
</g>
</svg>
